<svg height="512pt" viewBox="-51 0 512 512" width="512pt" xmlns="http://www.w3.org/2000/svg"><path d="m200.753906 82.886719h-52.539062v-49.117188c0-14.507812 11.761718-26.269531 26.269531-26.269531s26.269531 11.761719 26.269531 26.269531zm0 0" fill="#6a829a"/><path d="m282.480469 504.5h-215.996094c-32.578125 0-58.984375-26.410156-58.984375-58.984375v-329.328125c0-32.578125 26.410156-58.984375 58.984375-58.984375h215.996094c32.578125 0 58.984375 26.40625 58.984375 58.984375v329.328125c0 32.574219-26.40625 58.984375-58.984375 58.984375zm0 0" fill="#f2ad9a"/><path d="m66.484375 57.203125c-32.578125 0-58.984375 26.40625-58.984375 58.984375v329.328125c0 32.578125 26.410156 58.984375 58.984375 58.984375h48.441406c-18.855469-26.609375-16.902343-62.496094-16.902343-62.496094s-.625-266.269531 0-265.882812c23.246093-55.125 70.835937-61.667969 70.835937-61.667969v-57.25zm0 0" fill="#e7896e"/><path d="m66.484375 471.449219c-14.296875 0-25.933594-11.636719-25.933594-25.933594v-329.328125c0-14.300781 11.636719-25.933594 25.933594-25.933594h215.996094c14.300781 0 25.933593 11.632813 25.933593 25.933594v329.328125c0 14.296875-11.632812 25.933594-25.933593 25.933594zm0 0" fill="#a4e7ff"/><path d="m66.484375 90.253906c-14.296875 0-25.933594 11.632813-25.933594 25.933594v329.328125c0 14.300781 11.636719 25.933594 25.933594 25.933594h34.445313c-3.617188-16.289063-2.90625-29.445313-2.90625-29.445313s-.625-266.269531 0-265.882812c23.246093-55.125 70.835937-61.667969 70.835937-61.667969v-24.199219zm0 0" fill="#5ad6ff"/><path d="m206.171875 114.453125h-63.378906c-10.128907 0-18.335938-8.207031-18.335938-18.332031v-38.917969h100.050781v38.917969c0 10.125-8.207031 18.332031-18.335937 18.332031zm0 0" fill="#889cb0"/><path d="m118.667969 176.121094c0-9.078125-9.242188-16.4375-20.640625-16.4375-11.402344 0-20.640625 7.359375-20.640625 16.4375s9.238281 16.4375 20.640625 16.4375c11.398437 0 20.640625-7.359375 20.640625-16.4375zm0 0" fill="#fdb2db"/><path d="m271.582031 176.121094c0-9.078125-9.242187-16.4375-20.640625-16.4375-11.398437 0-20.640625 7.359375-20.640625 16.4375s9.242188 16.4375 20.640625 16.4375c11.398438 0 20.640625-7.359375 20.640625-16.4375zm0 0" fill="#fdb2db"/><g fill="#6a829a"><path d="m257.519531 278.316406h-113.535156c-8.398437 0-15.203125-6.804687-15.203125-15.203125 0-8.394531 6.804688-15.199219 15.203125-15.199219h113.535156c8.398438 0 15.203125 6.804688 15.203125 15.199219 0 8.398438-6.804687 15.203125-15.203125 15.203125zm0 0"/><path d="m257.519531 341.710938h-113.535156c-8.398437 0-15.203125-6.804688-15.203125-15.203126 0-8.394531 6.804688-15.199218 15.203125-15.199218h113.535156c8.398438 0 15.203125 6.804687 15.203125 15.199218 0 8.398438-6.804687 15.203126-15.203125 15.203126zm0 0"/><path d="m257.519531 405.105469h-113.535156c-8.398437 0-15.203125-6.808594-15.203125-15.203125 0-8.394532 6.804688-15.203125 15.203125-15.203125h113.535156c8.398438 0 15.203125 6.808593 15.203125 15.203125 0 8.394531-6.804687 15.203125-15.203125 15.203125zm0 0"/><path d="m168.859375 326.507812c0 8.394532-6.804687 15.203126-15.199219 15.203126-8.394531 0-15.199218-6.808594-15.199218-15.203126 0-8.394531 6.804687-15.199218 15.199218-15.199218 8.394532 0 15.199219 6.804687 15.199219 15.199218zm0 0"/></g><path d="m102.421875 326.507812c0 8.394532-6.804687 15.203126-15.199219 15.203126-8.394531 0-15.203125-6.808594-15.203125-15.203126 0-8.394531 6.808594-15.199218 15.203125-15.199218 8.394532 0 15.199219 6.804687 15.199219 15.199218zm0 0" fill="#00a5fb"/><path d="m102.421875 389.902344c0 8.394531-6.804687 15.203125-15.199219 15.203125-8.394531 0-15.203125-6.808594-15.203125-15.203125 0-8.394532 6.808594-15.199219 15.203125-15.199219 8.394532 0 15.199219 6.804687 15.199219 15.199219zm0 0" fill="#00a5fb"/><path d="m354.097656 315.980469c-8.675781-4.371094-12.167968-14.945313-7.796875-23.621094l23.019531-45.714844c4.367188-8.675781 14.945313-12.167969 23.621094-7.800781 8.675782 4.371094 12.167969 14.945312 7.796875 23.621094l-23.019531 45.714844c-4.367188 8.675781-14.941406 12.167968-23.621094 7.800781zm0 0" fill="#6a829a"/><path d="m317.757812 357.621094-9.636718 4.566406c-6.449219 3.054688-14.050782-.773438-15.4375-7.773438l-2.070313-10.460937c-1.152343-5.832031-.328125-11.882813 2.34375-17.191406l56.332031-111.867188c5.175782-10.277343 17.699219-14.414062 27.976563-9.238281 10.273437 5.175781 14.410156 17.699219 9.238281 27.976562l-56.332031 111.871094c-2.671875 5.308594-7.039063 9.570313-12.414063 12.117188zm0 0" fill="#00d2ce"/><path d="m377.265625 205.65625c-10.277344-5.171875-22.800781-1.039062-27.976563 9.238281l-10.949218 21.75 37.210937 18.738281 10.953125-21.746093c5.175782-10.277344 1.039063-22.804688-9.238281-27.980469zm0 0" fill="#889cb0"/><path d="m243.789062 165.851562v-12.453124c0-4.140626-3.355468-7.5-7.5-7.5-4.140624 0-7.5 3.359374-7.5 7.5v12.453124c0 4.140626 3.359376 7.5 7.5 7.5 4.144532 0 7.5-3.359374 7.5-7.5zm0 0"/><path d="m120.175781 165.851562v-12.453124c0-4.140626-3.355469-7.5-7.5-7.5-4.140625 0-7.5 3.359374-7.5 7.5v12.453124c0 4.140626 3.359375 7.5 7.5 7.5 4.144531 0 7.5-3.359374 7.5-7.5zm0 0"/><path d="m174.484375 176.121094c7.136719 0 13.738281-3.5625 17.660156-9.527344 2.273438-3.460938 1.308594-8.113281-2.152343-10.386719-1.269532-.835937-6.882813-2.992187-10.386719 2.152344-1.679688 2.464844-4.128907 2.761719-5.121094 2.761719-.996094 0-3.484375-.269532-5.125-2.761719-2.273437-3.464844-6.921875-4.425781-10.382813-2.152344-3.464843 2.273438-4.425781 6.925781-2.152343 10.386719 3.917969 5.964844 10.519531 9.527344 17.660156 9.527344zm0 0"/><path d="m98.992188 245.109375-13.566407 14.515625-7.125-6.28125c-3.109375-2.738281-7.847656-2.441406-10.585937.667969-2.738282 3.105469-2.441406 7.84375.664062 10.585937l12.589844 11.097656c1.421875 1.253907 3.191406 1.875 4.957031 1.875 2.007813 0 4.007813-.800781 5.480469-2.378906l18.546875-19.835937c2.828125-3.027344 2.667969-7.773438-.359375-10.601563-3.023438-2.828125-7.769531-2.667968-10.601562.355469zm0 0"/><path d="m181.984375 32.988281c0 4.140625-3.359375 7.5-7.5 7.5-4.144531 0-7.5-3.359375-7.5-7.5 0-4.144531 3.355469-7.5 7.5-7.5 4.140625 0 7.5 3.355469 7.5 7.5zm0 0"/><path d="m395.253906 231.652344c1.445313-5.308594 2.488282-24.390625-14.617187-32.691406-17.101563-8.304688-28.796875 1.632812-31.671875 4.214843v-86.988281c0-36.660156-29.824219-66.484375-66.484375-66.484375h-74.226563v-15.933594c0-18.621093-15.152344-33.769531-33.769531-33.769531-18.621094 0-33.769531 15.148438-33.769531 33.769531v15.933594h-74.230469c-36.660156 0-66.484375 29.824219-66.484375 66.484375v329.328125c0 36.660156 29.824219 66.484375 66.484375 66.484375h215.996094c36.660156 0 66.484375-29.824219 66.484375-66.484375v-20.941406c0-4.140625-3.355469-7.5-7.5-7.5-4.140625 0-7.5 3.359375-7.5 7.5v20.941406c0 28.386719-23.09375 51.484375-51.484375 51.484375h-215.996094c-28.386719 0-51.484375-23.097656-51.484375-51.484375v-329.328125c0-28.390625 23.097656-51.484375 51.484375-51.484375h50.476563v18.050781h-50.476563c-18.433594 0-33.433594 15-33.433594 33.433594v77.628906c0 4.144532 3.359375 7.5 7.5 7.5 4.144531 0 7.5-3.355468 7.5-7.5v-77.628906c0-10.164062 8.269531-18.433594 18.433594-18.433594h50.53125c.847656 13.488282 12.082031 24.199219 25.777344 24.199219h63.378906c13.695313 0 24.933594-10.714844 25.777344-24.199219h50.53125c10.164062 0 18.433593 8.269532 18.433593 18.433594v178.097656l-14.65625 29.105469c-3.40625 6.765625-4.472656 14.585937-3 22.019531l2.066407 10.460938c1.113281 5.621094 4.78125 13.898437 15.589843 14.703125v74.941406c0 10.164063-8.269531 18.433594-18.433593 18.433594h-215.996094c-10.164063 0-18.433594-8.269531-18.433594-18.433594v-219.863281c0-4.140625-3.355469-7.5-7.5-7.5-4.140625 0-7.5 3.359375-7.5 7.5v219.863281c0 18.433594 15 33.433594 33.433594 33.433594h215.996094c18.4375 0 33.433593-15 33.433593-33.433594v-78.722656s11.25-3.542969 18.054688-13.175781v39.796874c0 4.140626 3.355469 7.5 7.5 7.5 4.140625 0 7.5-3.359374 7.5-7.5v-68.558593l1.242188-2.46875c20.820312 8.695312 29.804687-2.085938 34.207031-10.832031l23.019531-45.714844c3.015625-5.988282 9.109375-26.703125-12.183594-34.1875zm-21.363281-19.296875c9.925781 5.214843 7.515625 14.722656 5.914063 17.90625l-7.578126 15.046875-23.816406-11.992188 7.578125-15.050781c1.601563-3.179687 7.980469-11.121094 17.902344-5.910156zm-218.175781-178.585938c0-10.347656 8.417968-18.769531 18.769531-18.769531 10.347656 0 18.769531 8.421875 18.769531 18.769531v15.933594h-37.539062zm61.292968 62.351563c0 5.972656-4.859374 10.832031-10.832031 10.832031h-63.382812c-5.972657 0-10.832031-4.859375-10.832031-10.832031v-31.417969h85.046874zm65.472657-13.367188h-50.472657v-18.050781h50.472657c28.390625 0 51.484375 23.09375 51.484375 51.484375v112.460938l-18.050782 35.847656v-148.308594c0-18.433594-14.996093-33.433594-33.433593-33.433594zm40.992187 259.375c-1.914062 3.800782-5.082031 6.894532-8.925781 8.714844l-9.636719 4.566406c-1.328125.628906-2.46875.246094-3.03125-.039062-.566406-.28125-1.550781-.972656-1.835937-2.414063l-2.070313-10.460937c-.828125-4.171875-.226562-8.558594 1.683594-12.359375l42.007812-83.421875 23.816407 11.996094zm70.566406-83.035156-23.019531 45.714844c-5.117187 9.289062-13.890625 4.28125-14.0625 4.179687l32.066407-63.679687c.179687.078125 9.359374 4.796875 5.015624 13.785156zm0 0"/><path d="m143.984375 349.210938h113.535156c12.519531 0 22.703125-10.183594 22.703125-22.703126 0-12.515624-10.183594-22.699218-22.703125-22.699218h-113.535156c-12.519531 0-22.703125 10.183594-22.703125 22.699218 0 12.519532 10.183594 22.703126 22.703125 22.703126zm0-30.402344h113.535156c4.246094 0 7.703125 3.453125 7.703125 7.703125 0 4.246093-3.457031 7.699219-7.703125 7.699219h-113.535156c-4.25 0-7.703125-3.453126-7.703125-7.699219 0-4.25 3.457031-7.703125 7.703125-7.703125zm0 0"/><path d="m121.28125 263.117188c0 12.515624 10.183594 22.699218 22.703125 22.699218h113.535156c12.519531 0 22.703125-10.183594 22.703125-22.699218 0-12.519532-10.183594-22.703126-22.703125-22.703126h-113.535156c-12.519531 0-22.703125 10.183594-22.703125 22.703126zm143.941406 0c0 4.246093-3.457031 7.699218-7.703125 7.699218h-113.535156c-4.25 0-7.703125-3.453125-7.703125-7.699218 0-4.25 3.457031-7.703126 7.703125-7.703126h113.535156c4.25 0 7.703125 3.453126 7.703125 7.703126zm0 0"/><path d="m143.984375 412.605469h113.535156c12.519531 0 22.703125-10.183594 22.703125-22.703125 0-12.519532-10.183594-22.703125-22.703125-22.703125h-113.535156c-12.519531 0-22.703125 10.1875-22.703125 22.703125 0 12.519531 10.183594 22.703125 22.703125 22.703125zm0-30.40625h113.535156c4.246094 0 7.703125 3.457031 7.703125 7.703125s-3.457031 7.703125-7.703125 7.703125h-113.535156c-4.25 0-7.703125-3.457031-7.703125-7.703125s3.457031-7.703125 7.703125-7.703125zm0 0"/><path d="m87.222656 349.210938c12.515625 0 22.703125-10.183594 22.703125-22.703126 0-12.515624-10.1875-22.699218-22.703125-22.699218-12.519531 0-22.703125 10.183594-22.703125 22.699218 0 12.519532 10.183594 22.703126 22.703125 22.703126zm0-30.402344c4.246094 0 7.703125 3.453125 7.703125 7.703125 0 4.246093-3.457031 7.699219-7.703125 7.699219s-7.703125-3.453126-7.703125-7.699219c0-4.25 3.457031-7.703125 7.703125-7.703125zm0 0"/><path d="m87.222656 412.605469c12.515625 0 22.703125-10.183594 22.703125-22.703125 0-12.519532-10.1875-22.703125-22.703125-22.703125-12.519531 0-22.703125 10.1875-22.703125 22.703125 0 12.519531 10.183594 22.703125 22.703125 22.703125zm0-30.40625c4.246094 0 7.703125 3.457031 7.703125 7.703125s-3.457031 7.703125-7.703125 7.703125-7.703125-3.457031-7.703125-7.703125 3.457031-7.703125 7.703125-7.703125zm0 0"/></svg>