<svg height="512pt" viewBox="-23 0 512 512" width="512pt" xmlns="http://www.w3.org/2000/svg"><path d="m238.777344 504.5h-190.46875c-44.445313 0-40.738282-40.738281-40.738282-40.738281 0-35.8125 29.03125-64.839844 64.839844-64.839844h101.523438c35.8125 0 64.839844 29.027344 64.839844 64.839844v40.738281zm0 0" fill="#00a5fb"/><path d="m226.296875 333.488281c0 56.953125-46.167969 103.125-103.125 103.125-56.953125 0-103.121094-46.171875-103.121094-103.125s46.167969-103.125 103.121094-103.125c56.957031 0 103.125 46.171875 103.125 103.125zm0 0" fill="#00c5fd"/><path d="m227.910156 504.5h190.464844c44.445312 0 40.738281-40.738281 40.738281-40.738281 0-35.8125-29.03125-64.839844-64.839843-64.839844h-101.523438c-35.808594 0-64.839844 29.027344-64.839844 64.839844zm0 0" fill="#00a5fb"/><path d="m446.636719 333.488281c0 56.953125-46.171875 103.125-103.125 103.125s-103.125-46.171875-103.125-103.125 46.171875-103.125 103.125-103.125 103.125 46.171875 103.125 103.125zm0 0" fill="#00c5fd"/><path d="m348.945312 504.5h-231.203124v-61.730469c0-35.8125 29.027343-64.839843 64.839843-64.839843h101.523438c35.808593 0 64.839843 29.027343 64.839843 64.839843zm0 0" fill="#5ad6ff"/><path d="m336.464844 312.496094c0 56.953125-46.167969 103.125-103.121094 103.125s-103.125-46.171875-103.125-103.125 46.171875-103.125 103.125-103.125 103.121094 46.171875 103.121094 103.125zm0 0" fill="#a4e7ff"/><path d="m392.746094 7.5h-316.785156c-18.855469 0-34.140626 15.285156-34.140626 34.140625v95.453125c0 18.851562 15.285157 34.140625 34.140626 34.140625h18.199218l12.429688 17.296875c5.976562 8.3125 18.34375 8.3125 24.320312 0l12.429688-17.296875h66.421875l12.433593 17.296875c5.972657 8.3125 18.339844 8.3125 24.316407 0l12.429687-17.296875h66.425782l12.429687 17.296875c5.972656 8.3125 18.34375 8.3125 24.316406 0l12.429688-17.296875h18.203125c18.855468 0 34.140625-15.285156 34.140625-34.140625v-95.453125c0-18.855469-15.289063-34.140625-34.140625-34.140625zm0 0" fill="#76e7e7"/><g fill="#00d2ce"><path d="m246.511719 188.53125 12.429687-17.296875h-49.179687l12.433593 17.296875c5.972657 8.3125 18.339844 8.3125 24.316407 0zm0 0"/><path d="m362.113281 188.53125 12.429688-17.296875h-49.175781l12.429687 17.296875c5.972656 8.3125 18.339844 8.3125 24.316406 0zm0 0"/><path d="m130.910156 188.53125 12.429688-17.296875h-49.179688l12.429688 17.296875c5.976562 8.3125 18.34375 8.3125 24.320312 0zm0 0"/></g><path d="m128.679688 55.507812 6.828124 13.835938 15.269532 2.21875c9.082031 1.320312 12.707031 12.480469 6.136718 18.886719l-11.050781 10.769531 2.609375 15.210938c1.550782 9.042968-7.941406 15.941406-16.0625 11.671874l-13.660156-7.179687-13.660156 7.179687c-8.121094 4.269532-17.617188-2.628906-16.0625-11.671874l2.605468-15.210938-11.046874-10.769531c-6.574219-6.40625-2.945313-17.566407 6.132812-18.886719l15.273438-2.21875 6.828124-13.835938c4.0625-8.230468 15.796876-8.230468 19.859376 0zm0 0" fill="#f9ee80"/><path d="m244.28125 55.507812 6.828125 13.835938 15.269531 2.21875c9.082032 1.320312 12.707032 12.480469 6.136719 18.886719l-11.050781 10.769531 2.609375 15.210938c1.550781 9.042968-7.941407 15.941406-16.0625 11.671874l-13.660157-7.179687-13.660156 7.179687c-8.121094 4.269532-17.613281-2.628906-16.0625-11.671874l2.609375-15.210938-11.050781-10.769531c-6.570312-6.40625-2.945312-17.566407 6.136719-18.886719l15.269531-2.21875 6.828125-13.835938c4.0625-8.230468 15.796875-8.230468 19.859375 0zm0 0" fill="#f9ee80"/><path d="m359.882812 55.507812 6.828126 13.835938 15.273437 2.21875c9.078125 1.320312 12.707031 12.480469 6.132813 18.886719l-11.046876 10.769531 2.605469 15.210938c1.554688 9.042968-7.941406 15.941406-16.0625 11.671874l-13.660156-7.179687-13.660156 7.179687c-8.121094 4.269532-17.613281-2.628906-16.0625-11.671874l2.609375-15.210938-11.050782-10.769531c-6.570312-6.40625-2.945312-17.566407 6.136719-18.886719l15.269531-2.21875 6.828126-13.835938c4.0625-8.230468 15.796874-8.230468 19.859374 0zm0 0" fill="#f9ee80"/><path d="m280.75 334.757812c4.140625 0 7.5-3.359374 7.5-7.5v-12.453124c0-4.140626-3.359375-7.5-7.5-7.5-4.144531 0-7.5 3.359374-7.5 7.5v12.453124c0 4.140626 3.359375 7.5 7.5 7.5zm0 0"/><path d="m185.933594 334.757812c4.144531 0 7.5-3.359374 7.5-7.5v-12.453124c0-4.140626-3.355469-7.5-7.5-7.5-4.140625 0-7.5 3.359374-7.5 7.5v12.453124c0 4.140626 3.359375 7.5 7.5 7.5zm0 0"/><path d="m233.34375 337.527344c7.136719 0 13.738281-3.558594 17.660156-9.527344 2.273438-3.460938 1.308594-8.113281-2.152344-10.386719-1.269531-.832031-6.882812-2.992187-10.386718 2.152344-1.679688 2.464844-4.128906 2.761719-5.121094 2.761719-.996094 0-3.484375-.265625-5.125-2.761719-2.273438-3.460937-6.925781-4.425781-10.386719-2.152344-3.460937 2.273438-4.421875 6.925781-2.148437 10.386719 3.917968 5.96875 10.519531 9.527344 17.660156 9.527344zm0 0"/><path d="m166.847656 76.78125c-2.199218-6.769531-7.941406-11.617188-14.988281-12.640625l-11.371094-1.652344-5.085937-10.300781c-3.152344-6.386719-9.53125-10.351562-16.652344-10.351562s-13.503906 3.964843-16.65625 10.351562l-5.082031 10.300781-11.371094 1.65625c-7.046875 1.019531-12.789063 5.867188-14.992187 12.636719-2.199219 6.773438-.398438 14.070312 4.699218 19.039062l8.226563 8.019532-1.941407 11.324218c-1.203124 7.019532 1.628907 13.976563 7.390626 18.164063 3.253906 2.363281 11.015624 6.058594 19.558593 1.414063l10.167969-5.347657 10.167969 5.347657c6.300781 3.3125 13.796875 2.769531 19.558593-1.414063 5.761719-4.1875 8.59375-11.144531 7.386719-18.164063l-1.941406-11.324218 8.226563-8.019532c5.101562-4.96875 6.902343-12.265624 4.699218-19.039062zm-15.167968 8.296875-11.050782 10.769531c-1.765625 1.726563-2.574218 4.207032-2.15625 6.640625l2.609375 15.210938c.339844 1.972656-.882812 3.101562-1.421875 3.492187-.539062.390625-1.988281 1.203125-3.761718.269532l-13.660157-7.179688c-2.183593-1.148438-4.792969-1.148438-6.980469 0l-13.65625 7.179688c-1.773437.933593-3.222656.121093-3.761718-.269532-.539063-.394531-1.761719-1.519531-1.421875-3.492187l2.609375-15.210938c.417968-2.433593-.390625-4.914062-2.15625-6.640625l-11.050782-10.769531c-1.4375-1.398437-1.113281-3.027344-.90625-3.660156.207032-.636719.902344-2.144531 2.882813-2.433594l15.273437-2.21875c2.441407-.355469 4.554688-1.886719 5.644532-4.101563l6.832031-13.839843c.886719-1.796875 2.535156-1.988281 3.203125-1.988281s2.316406.191406 3.203125 1.988281l6.828125 13.839843c1.09375 2.214844 3.203125 3.746094 5.648438 4.101563l15.269531 2.21875c1.984375.289063 2.675781 1.796875 2.882812 2.433594.207031.632812.535157 2.261719-.902343 3.660156zm0 0"/><path d="m282.453125 76.78125c-2.199219-6.769531-7.945313-11.617188-14.992187-12.640625l-11.371094-1.652344-5.082032-10.300781c-3.152343-6.386719-9.535156-10.351562-16.652343-10.351562-7.121094 0-13.503907 3.964843-16.65625 10.351562l-5.082031 10.300781-11.371094 1.652344c-7.046875 1.023437-12.792969 5.867187-14.992188 12.640625-2.203125 6.773438-.398437 14.066406 4.699219 19.039062l8.226563 8.019532-1.941407 11.324218c-1.203125 7.015626 1.625 13.976563 7.386719 18.164063 3.253906 2.363281 11.296875 5.800781 19.558594 1.410156l10.167968-5.34375 10.171876 5.34375c6.300781 3.316407 13.796874 2.773438 19.554687-1.410156 5.761719-4.1875 8.59375-11.148437 7.390625-18.167969l-1.941406-11.320312 8.226562-8.019532c5.097656-4.96875 6.898438-12.265624 4.699219-19.039062zm-15.171875 8.296875-11.050781 10.773437c-1.765625 1.722657-2.574219 4.203126-2.15625 6.636719l2.609375 15.210938c.339844 1.976562-.882813 3.101562-1.421875 3.492187-.539063.394532-1.988281 1.203125-3.761719.273438l-13.65625-7.183594c-2.1875-1.144531-4.796875-1.148438-6.980469 0l-13.660156 7.183594c-1.773437.929687-3.222656.121094-3.761719-.273438-.539062-.390625-1.761718-1.519531-1.421875-3.492187l2.609375-15.210938c.417969-2.433593-.390625-4.914062-2.15625-6.636719l-11.050781-10.773437c-1.4375-1.398437-1.113281-3.023437-.90625-3.660156s.902344-2.144531 2.886719-2.429688l15.269531-2.222656c2.441406-.351563 4.554687-1.886719 5.648437-4.101563l6.828126-13.839843c.886718-1.796875 2.535156-1.988281 3.203124-1.988281.667969 0 2.3125.191406 3.199219 1.988281l6.832031 13.839843c1.09375 2.214844 3.203126 3.746094 5.644532 4.101563l15.273437 2.222656c1.984375.285157 2.675781 1.792969 2.882813 2.429688.207031.632812.535156 2.261719-.902344 3.660156zm0 0"/><path d="m398.054688 76.78125c-2.199219-6.769531-7.945313-11.617188-14.992188-12.640625l-11.371094-1.652344-5.082031-10.300781c-3.152344-6.386719-9.535156-10.351562-16.65625-10.351562s-13.5 3.964843-16.652344 10.351562l-5.085937 10.300781-11.367188 1.652344c-7.046875 1.023437-12.792968 5.867187-14.992187 12.640625s-.398438 14.066406 4.699219 19.039062l8.226562 8.019532-1.941406 11.324218c-1.203125 7.019532 1.628906 13.976563 7.390625 18.164063 3.253906 2.363281 11.257812 5.632813 19.558593 1.410156l10.167969-5.34375 10.167969 5.34375c6.304688 3.316407 13.796875 2.773438 19.558594-1.414062 5.761718-4.183594 8.59375-11.144531 7.390625-18.160157l-1.941407-11.324218 8.226563-8.019532c5.09375-4.96875 6.894531-12.265624 4.695313-19.039062zm-15.171876 8.296875-11.050781 10.773437c-1.765625 1.722657-2.574219 4.203126-2.15625 6.636719l2.609375 15.210938c.339844 1.976562-.878906 3.101562-1.421875 3.492187-.539062.394532-1.988281 1.203125-3.761719.269532l-13.65625-7.179688c-1.09375-.574219-2.292968-.859375-3.492187-.859375s-2.398437.285156-3.488281.859375l-13.660156 7.179688c-1.773438.933593-3.222657.121093-3.761719-.269532-.539063-.394531-1.757813-1.519531-1.421875-3.492187l2.609375-15.210938c.417969-2.433593-.390625-4.914062-2.15625-6.640625l-11.050781-10.769531c-1.4375-1.398437-1.109376-3.027344-.902344-3.660156.203125-.636719.898437-2.144531 2.882812-2.433594l15.269532-2.21875c2.441406-.355469 4.554687-1.886719 5.648437-4.101563l6.828125-13.839843c.886719-1.796875 2.535156-1.988281 3.203125-1.988281s2.316406.191406 3.203125 1.988281l6.828125 13.839843c1.09375 2.210938 3.207031 3.746094 5.648437 4.101563l15.269532 2.21875c1.984375.289063 2.679687 1.796875 2.882812 2.433594.210938.632812.535156 2.261719-.902344 3.660156zm0 0"/><path d="m466.613281 463.480469c-.097656-25.847657-13.847656-49.3125-35.75-62.132813 1.222657-1.570312 2.417969-3.167968 3.5625-4.816406 12.894531-18.5625 19.710938-40.359375 19.710938-63.042969 0-61-49.625-110.625-110.625-110.625-12.839844 0-25.367188 2.175781-37.316407 6.460938-18.390624-16.132813-42.160156-26.269531-68.226562-27.347657 5.867188-.933593 11.074219-4.117187 14.632812-9.070312l10.183594-14.171875h58.734375l10.1875 14.171875c4.273438 5.949219 10.921875 9.359375 18.246094 9.359375s13.976563-3.410156 18.25-9.359375l10.1875-14.171875h14.355469c22.960937 0 41.640625-18.679687 41.640625-41.640625v-95.453125c0-22.960937-18.683594-41.640625-41.640625-41.640625h-224.523438c-4.140625 0-7.5 3.355469-7.5 7.5s3.359375 7.5 7.5 7.5h224.523438c14.6875 0 26.640625 11.949219 26.640625 26.640625v95.453125c0 14.6875-11.953125 26.640625-26.640625 26.640625h-18.203125c-2.414063 0-4.683594 1.160156-6.089844 3.121094l-12.429687 17.300781c-1.421876 1.976562-3.636719 3.109375-6.070313 3.109375s-4.644531-1.132813-6.066406-3.109375l-12.429688-17.300781c-1.410156-1.960938-3.675781-3.121094-6.089843-3.121094h-66.425782c-2.417968 0-4.683594 1.160156-6.09375 3.121094l-12.429687 17.300781c-1.421875 1.976562-3.632813 3.109375-6.066407 3.109375-2.4375 0-4.648437-1.132813-6.066406-3.109375l-12.429687-17.300781c-1.410157-1.960938-3.679688-3.121094-6.09375-3.121094h-66.425781c-2.414063 0-4.679688 1.160156-6.089844 3.121094l-12.429688 17.300781c-1.417968 1.976562-3.632812 3.109375-6.066406 3.109375-2.4375 0-4.648438-1.132813-6.070312-3.109375l-12.429688-17.300781c-1.40625-1.960938-3.675781-3.121094-6.089844-3.121094h-18.199218c-14.691407 0-26.640626-11.953125-26.640626-26.640625v-95.453125c0-14.691406 11.949219-26.640625 26.640626-26.640625h61.425781c4.144531 0 7.5-3.355469 7.5-7.5s-3.355469-7.5-7.5-7.5h-61.425781c-22.960938 0-41.640626 18.679688-41.640626 41.640625v95.453125c0 22.960938 18.679688 41.640625 41.640626 41.640625h14.355468l10.183594 14.175781c4.273438 5.945313 10.925781 9.355469 18.25 9.355469s13.976562-3.410156 18.25-9.355469l10.183594-14.175781h58.734375l10.1875 14.175781c3.472656 4.832032 8.519531 7.992188 14.21875 9.003906-26.699219.71875-51.066407 10.949219-69.835938 27.410157-11.945312-4.285157-24.476562-6.460938-37.316406-6.460938-60.996094 0-110.621094 49.628907-110.621094 110.625 0 25.53125 8.652344 49.109375 23.238281 67.882813-21.882812 12.824218-35.617187 36.277344-35.7148432 62.113281-.1992188 2.992187-.8203128 21.101563 11.3984372 34.484375 8.503906 9.308594 20.898438 14.03125 36.835938 14.03125h370.066406c15.941406 0 28.332031-4.722656 36.835938-14.03125 12.222656-13.382812 11.597656-31.492188 11.402343-34.488281zm-233.269531-246.609375c52.726562 0 95.621094 42.898437 95.621094 95.625 0 52.726562-42.894532 95.625-95.621094 95.625-52.730469 0-95.625-42.898438-95.625-95.625 0-52.726563 42.898438-95.625 95.625-95.625zm-110.171875 20.992187c8.726563 0 17.273437 1.183594 25.542969 3.472657-16.210938 19.25-25.996094 44.082031-25.996094 71.160156 0 25.546875 8.707031 49.09375 23.304688 67.839844-17.859376 10.445312-30.300782 27.964843-34.347657 48.089843-47.667969-5.691406-84.128906-46.203125-84.128906-94.9375 0-52.726562 42.898437-95.625 95.625-95.625zm-100.542969 250.074219c-8.628906-9.359375-7.597656-23.390625-7.589844-23.496094.023438-.226562.03125-.453125.03125-.679687 0-21.597657 12.019532-41.125 30.972657-50.933594 16.972656 16.519531 39.269531 27.636719 64.199219 30.53125v53.640625h-61.933594c-11.496094 0-20.136719-3.050781-25.679688-9.0625zm318.816406 9.0625h-216.203124v-54.230469c0-21.628906 12.050781-41.1875 31.050781-50.976562 19.933593 19.375 47.121093 31.328125 77.050781 31.328125 29.925781 0 57.109375-11.949219 77.042969-31.324219 19.019531 9.78125 31.058593 29.273437 31.058593 50.972656zm102.6875-9.148438c-5.542968 6.070313-14.207031 9.148438-25.757812 9.148438h-61.929688v-54.230469c0-26.058593-13.761718-49.589843-35.78125-62.441406 14.597657-18.742187 23.300782-42.289063 23.300782-67.832031 0-27.078125-9.785156-51.910156-25.996094-71.160156 8.269531-2.289063 16.820312-3.472657 25.542969-3.472657 52.726562 0 95.625 42.898438 95.625 95.625 0 19.609375-5.890625 38.449219-17.03125 54.488281-10.894531 15.679688-26.011719 27.636719-43.710938 34.578126-3.855469 1.511718-5.757812 5.863281-4.246093 9.71875 1.160156 2.957031 5.226562 5.949218 9.722656 4.246093 13.867187-5.261719 26.246094-13.472656 36.75-23.703125 18.964844 9.800782 30.992187 29.339844 30.992187 50.945313 0 .226562.011719.453125.03125.679687.011719.136719 1.019531 14.074219-7.511719 23.410156zm0 0"/></svg>