<svg id="Layer_1" data-name="Layer 1" xmlns="http://www.w3.org/2000/svg" xmlns:xlink="http://www.w3.org/1999/xlink" viewBox="0 0 423.05 256.68"><defs><style>.cls-1{fill:#424242;}.cls-2{fill:#312e34;}.cls-3{fill:#616161;}.cls-4{fill:url(#linear-gradient);}.cls-5{fill:#ffb300;}.cls-6{fill:#ffa000;}.cls-7{fill:#ffef80;}.cls-8{fill:#ff7d21;}.cls-9{fill:#ffcb5d;}.cls-10{fill:url(#linear-gradient-2);}.cls-11{fill:#1ab8ff;}.cls-12{fill:#f2f8fd;}.cls-13{fill:#deeee9;}.cls-14{fill:url(#linear-gradient-3);}.cls-15{fill:url(#linear-gradient-4);}.cls-16{fill:#fff;}.cls-17{fill:none;}.cls-18{fill:#1ae5ff;}.cls-19{fill:url(#linear-gradient-5);}.cls-20{fill:url(#linear-gradient-6);}.cls-21{fill:url(#linear-gradient-7);}.cls-22{fill:url(#linear-gradient-8);}.cls-23{fill:url(#linear-gradient-9);}.cls-24{fill:#db4fff;}.cls-25{fill:url(#linear-gradient-10);}.cls-26{fill:url(#linear-gradient-11);}.cls-27{fill:url(#linear-gradient-12);}.cls-28{fill:url(#linear-gradient-13);}.cls-29{fill:url(#linear-gradient-14);}.cls-30{fill:url(#linear-gradient-15);}.cls-31{fill:#ffcc80;}.cls-32{fill:url(#linear-gradient-16);}.cls-33{fill:url(#linear-gradient-17);}.cls-34{fill:url(#linear-gradient-18);}.cls-35{fill:url(#linear-gradient-19);}.cls-36{fill:#ff8a65;}.cls-37{fill:#fec800;}.cls-38{fill:url(#linear-gradient-20);}.cls-39{fill:#f1eeeb;}.cls-40{fill:url(#linear-gradient-21);}.cls-41{fill:url(#linear-gradient-22);}.cls-42{fill:url(#linear-gradient-23);}.cls-43{fill:url(#linear-gradient-24);}.cls-44{fill:#00acc1;}.cls-45{fill:#455a64;}.cls-46{fill:#3c0aff;}.cls-47{fill:#fbe3a7;}.cls-48{fill:url(#linear-gradient-25);}.cls-49{fill:url(#linear-gradient-26);}.cls-50{fill:url(#linear-gradient-27);}.cls-51{fill:url(#linear-gradient-28);}.cls-52{fill:url(#linear-gradient-29);}</style><linearGradient id="linear-gradient" x1="304.36" y1="160.16" x2="288.41" y2="522.73" gradientUnits="userSpaceOnUse"><stop offset="0" stop-color="#3c0aff"/><stop offset="1" stop-color="#b84fff"/></linearGradient><linearGradient id="linear-gradient-2" x1="127.18" y1="459.51" x2="116.18" y2="328.51" gradientUnits="userSpaceOnUse"><stop offset="0" stop-color="#00acc1"/><stop offset="1" stop-color="#4de4ad"/></linearGradient><linearGradient id="linear-gradient-3" x1="394.61" y1="383.65" x2="351.06" y2="213.25" xlink:href="#linear-gradient-2"/><linearGradient id="linear-gradient-4" x1="344.98" y1="420.43" x2="307.41" y2="258.1" xlink:href="#linear-gradient"/><linearGradient id="linear-gradient-5" x1="155.35" y1="296.38" x2="147.55" y2="247.47" gradientUnits="userSpaceOnUse"><stop offset="0" stop-color="#3949ab"/><stop offset="1" stop-color="#7986ff"/></linearGradient><linearGradient id="linear-gradient-6" x1="190.57" y1="287.81" x2="183.83" y2="250.24" gradientUnits="userSpaceOnUse"><stop offset="0" stop-color="#0067ff"/><stop offset="1" stop-color="#36ffff"/></linearGradient><linearGradient id="linear-gradient-7" x1="166.16" y1="284.2" x2="170.77" y2="249.83" xlink:href="#linear-gradient-2"/><linearGradient id="linear-gradient-8" x1="162.98" y1="271.98" x2="99.94" y2="131.46" xlink:href="#linear-gradient-6"/><linearGradient id="linear-gradient-9" x1="420.38" y1="418.44" x2="410.38" y2="358.44" xlink:href="#linear-gradient-2"/><linearGradient id="linear-gradient-10" x1="423.12" y1="212.67" x2="431.62" y2="212.67" gradientUnits="userSpaceOnUse"><stop offset="0" stop-color="#1ae5ff"/><stop offset="1" stop-color="#eaeeee"/></linearGradient><linearGradient id="linear-gradient-11" x1="348.52" y1="202.5" x2="353.48" y2="202.5" xlink:href="#linear-gradient-10"/><linearGradient id="linear-gradient-12" x1="101.48" y1="313.15" x2="106.44" y2="313.15" xlink:href="#linear-gradient-10"/><linearGradient id="linear-gradient-13" x1="448.46" y1="284.44" x2="453.42" y2="284.44" xlink:href="#linear-gradient-10"/><linearGradient id="linear-gradient-14" x1="214.52" y1="211.5" x2="219.48" y2="211.5" xlink:href="#linear-gradient-10"/><linearGradient id="linear-gradient-15" x1="264.57" y1="239.09" x2="281.82" y2="239.09" gradientUnits="userSpaceOnUse"><stop offset="0" stop-color="#fe9300"/><stop offset="1" stop-color="#fec800"/></linearGradient><linearGradient id="linear-gradient-16" x1="276.76" y1="198.59" x2="283.94" y2="279.66" xlink:href="#linear-gradient-15"/><linearGradient id="linear-gradient-17" x1="284.55" y1="197.9" x2="291.72" y2="278.97" xlink:href="#linear-gradient-15"/><linearGradient id="linear-gradient-18" x1="259.23" y1="200.14" x2="266.41" y2="281.22" xlink:href="#linear-gradient-15"/><linearGradient id="linear-gradient-19" x1="251.17" y1="200.86" x2="258.34" y2="281.93" xlink:href="#linear-gradient-15"/><linearGradient id="linear-gradient-20" x1="193.16" y1="377.68" x2="264.49" y2="301.01" xlink:href="#linear-gradient"/><linearGradient id="linear-gradient-21" x1="229.21" y1="346.76" x2="230.2" y2="287.4" xlink:href="#linear-gradient-15"/><linearGradient id="linear-gradient-22" x1="257.85" y1="321.09" x2="395.85" y2="321.09" xlink:href="#linear-gradient-15"/><linearGradient id="linear-gradient-23" x1="165.2" y1="190.5" x2="158.54" y2="239.16" xlink:href="#linear-gradient"/><linearGradient id="linear-gradient-24" x1="120.46" y1="402.36" x2="249.47" y2="336.79" xlink:href="#linear-gradient-2"/><linearGradient id="linear-gradient-25" x1="343.43" y1="137.97" x2="347.59" y2="131.86" xlink:href="#linear-gradient-2"/><linearGradient id="linear-gradient-26" x1="344.59" y1="124.28" x2="291.42" y2="146.61" xlink:href="#linear-gradient"/><linearGradient id="linear-gradient-27" x1="326.32" y1="149.03" x2="340.93" y2="149.03" xlink:href="#linear-gradient-2"/><linearGradient id="linear-gradient-28" x1="323.07" y1="149.62" x2="335.51" y2="149.62" xlink:href="#linear-gradient-2"/><linearGradient id="linear-gradient-29" x1="343.55" y1="121.8" x2="290.38" y2="144.13" xlink:href="#linear-gradient"/></defs><title>education</title><path class="cls-1" d="M262.67,222c12.74,0,24.32,1.62,32.9,4.26,8.58-2.64,20.15-4.26,32.9-4.26s24.27,1.62,32.84,4.24V170.48H229.82v55.71C238.4,223.57,250,222,262.67,222Z" transform="translate(-38.17 -121.84)"/><path class="cls-2" d="M229.82,205.88c54-17.46,109.84-22.83,131.49-24.33V170.48H229.82Z" transform="translate(-38.17 -121.84)"/><rect class="cls-1" x="134.06" y="42.52" width="246.68" height="11.21" rx="5.61"/><rect class="cls-3" x="176.54" y="42.52" width="161.73" height="11.21"/><path class="cls-4" d="M418.58,378.51a129.62,129.62,0,1,0-243.77,0Z" transform="translate(-38.17 -121.84)"/><rect class="cls-5" x="77.1" y="206.4" width="16.76" height="36.94"/><rect class="cls-6" x="65.13" y="237.86" width="42.41" height="10.95"/><rect class="cls-5" x="76.42" y="237.86" width="19.84" height="10.95"/><rect class="cls-6" x="42.9" y="248.81" width="86.88" height="7.87"/><rect class="cls-7" x="66.02" y="248.81" width="40.64" height="7.87"/><path class="cls-8" d="M137.5,326.53l.26-.43c.26-.44.49-.89.71-1.36l.15-.31a13.51,13.51,0,0,0,.63-1.75c0-.14.08-.29.11-.43a14,14,0,0,0,.31-1.46l.09-.53c0-.15,0-.3.05-.45h1.8v-3.88H107.4v3.88h1.8a15.38,15.38,0,0,0,22.55,12.08h0a16.24,16.24,0,0,0,1.59-1l.34-.26c.4-.3.78-.62,1.15-.95l.32-.29a16.23,16.23,0,0,0,1.26-1.36l.11-.15A14.32,14.32,0,0,0,137.5,326.53Z" transform="translate(-38.17 -121.84)"/><path class="cls-6" d="M195,248.54a70.47,70.47,0,0,1-140.93,0Z" transform="translate(-38.17 -121.84)"/><path class="cls-5" d="M157.68,310.7A70.43,70.43,0,0,0,195,248.54H120.4A70.44,70.44,0,0,0,157.68,310.7Z" transform="translate(-38.17 -121.84)"/><rect class="cls-9" x="8.01" y="115.75" width="156.66" height="17.79"/><rect class="cls-7" x="54.87" y="115.75" width="62.94" height="17.79"/><path class="cls-10" d="M160.86,378.51c-.68-4.16-1.76-8.95-3.43-12.13-3.52-6.68-6.58-3-14.69,1.49s-5.36-29.46-14.69-36.64-14.54,7.67-20.66,18.57-8.87,5.69-17.28,3.21c-7.76-2.28-9.93,21.73-10.22,25.5Z" transform="translate(-38.17 -121.84)"/><rect class="cls-11" x="286.68" y="109.71" width="117.39" height="145.96" rx="6.39"/><rect class="cls-12" x="292.16" y="113.9" width="105.91" height="137.45" rx="5.77"/><rect class="cls-13" x="358.42" y="113.9" width="31.83" height="137.45"/><path class="cls-14" d="M417.85,225.16H324.33V377.51h93.52a6.4,6.4,0,0,0,6.39-6.4V231.55A6.39,6.39,0,0,0,417.85,225.16Z" transform="translate(-38.17 -121.84)"/><path class="cls-15" d="M326.68,225.16H313.24a6.39,6.39,0,0,0-6.39,6.39V371.11a6.4,6.4,0,0,0,6.39,6.4h13.44Z" transform="translate(-38.17 -121.84)"/><rect class="cls-16" x="297.9" y="142.06" width="73.96" height="17.22" rx="5.87"/><path class="cls-17" d="M418.58,378.51a129.62,129.62,0,1,0-243.77,0Z" transform="translate(-38.17 -121.84)"/><path class="cls-18" d="M150.29,256.59l-6.1,1.18a1,1,0,0,1-1.09-1.26l1.41-9.07a.91.91,0,0,1,.69-.79h0a.92.92,0,0,1,.94.48l4.69,7.89A1,1,0,0,1,150.29,256.59Z" transform="translate(-38.17 -121.84)"/><path class="cls-19" d="M173.28,361.32h0l-1.15-5.95h0L155,266.7l-.85-4.4h0l-.58-3-4.26-7.3-2.92.57h0l-2.92.56-1.24,8.36.58,3h0l17.43,90.1h0l.34,1.75h0l1.38,7.18a.66.66,0,0,0,.78.52l6-1.15h0l.82-.16.68-.13h0l2.56-.5h0l.21,0a.44.44,0,0,0,.36-.52Z" transform="translate(-38.17 -121.84)"/><path class="cls-16" d="M189.35,267.85,183.26,269a1,1,0,0,1-1.09-1.26l1.41-9.07a.9.9,0,0,1,.69-.79h0a.91.91,0,0,1,.94.47l4.68,7.9A1,1,0,0,1,189.35,267.85Z" transform="translate(-38.17 -121.84)"/><path class="cls-20" d="M212.35,372.58h0l-1.15-5.95h0L194,278l-.85-4.4h0l-.57-3-4.26-7.29-2.92.57h0l-2.92.56-1.24,8.36.58,3h0l17.42,90.1h0l.34,1.75h0l1.39,7.17a.67.67,0,0,0,.78.53l6-1.15h0l.83-.16.68-.13h0l2.56-.5h0l.21,0a.45.45,0,0,0,.36-.53Z" transform="translate(-38.17 -121.84)"/><path class="cls-1" d="M178.57,258.57l-6-1.47a1,1,0,0,1-.47-1.59l5.06-7.67a.91.91,0,0,1,1-.42h0a.91.91,0,0,1,.66.82l1,9.13A1,1,0,0,1,178.57,258.57Z" transform="translate(-38.17 -121.84)"/><path class="cls-21" d="M155.82,363.36h0l1.44-5.9h0l21.36-87.75,1.06-4.35h0l.72-2.94-.84-8.41-2.88-.7h0l-2.89-.7-4.61,7.08-.72,2.94h0l-21.71,89.16h0l-.42,1.73h0l-1.73,7.1a.68.68,0,0,0,.49.81l5.9,1.43h0l.82.2.67.17h0l2.54.61h0l.21.06a.46.46,0,0,0,.54-.33Z" transform="translate(-38.17 -121.84)"/><path class="cls-22" d="M102.06,162.49h67.6a4.94,4.94,0,0,1,4.94,4.94v89.25a0,0,0,0,1,0,0H97.13a0,0,0,0,1,0,0V167.43A4.94,4.94,0,0,1,102.06,162.49Z"/><path class="cls-23" d="M450.5,378.51c-.62-3.77-1.6-8.13-3.12-11-3.2-6.07-6-2.7-13.34,1.35s-4.86-26.76-13.34-33.28-13.2,7-18.76,16.86-8.06,5.17-15.7,2.92c-7-2.07-9,19.74-9.28,23.16Z" transform="translate(-38.17 -121.84)"/><path class="cls-24" d="M46.67,274.24A4.25,4.25,0,1,1,42.42,270,4.25,4.25,0,0,1,46.67,274.24Z" transform="translate(-38.17 -121.84)"/><circle class="cls-24" cx="419.51" cy="194.15" r="3.54"/><path class="cls-24" d="M317,192.87a2.13,2.13,0,1,1-2.13,2.13A2.14,2.14,0,0,1,317,192.87Z" transform="translate(-38.17 -121.84)"/><circle class="cls-24" cx="124.83" cy="106.16" r="2.13"/><path class="cls-25" d="M431.62,212.67a4.25,4.25,0,1,1-4.25-4.25A4.25,4.25,0,0,1,431.62,212.67Z" transform="translate(-38.17 -121.84)"/><path class="cls-26" d="M353.48,202.5A2.48,2.48,0,1,1,351,200,2.48,2.48,0,0,1,353.48,202.5Z" transform="translate(-38.17 -121.84)"/><path class="cls-27" d="M106.44,313.15a2.48,2.48,0,1,1-2.48-2.48A2.48,2.48,0,0,1,106.44,313.15Z" transform="translate(-38.17 -121.84)"/><path class="cls-28" d="M453.42,284.44a2.48,2.48,0,1,1-2.48-2.48A2.48,2.48,0,0,1,453.42,284.44Z" transform="translate(-38.17 -121.84)"/><path class="cls-29" d="M219.48,211.5A2.48,2.48,0,1,1,217,209,2.48,2.48,0,0,1,219.48,211.5Z" transform="translate(-38.17 -121.84)"/><path class="cls-16" d="M256.56,300.27s-6.81,2.87-6.7,4.3,3.45,1.27,5.7.33a10.37,10.37,0,0,0,2.91-1.9.75.75,0,0,0,1.16-.08c.51-.7,1.16-2.1.42-2.5S256.56,300.27,256.56,300.27Z" transform="translate(-38.17 -121.84)"/><path class="cls-1" d="M265.82,250.73s-5.15,20.86-6.47,27.67-3.6,20.63-3.22,21.76,2.65.76,3.59.19,5.3-19.49,6.63-22.71,8.51-23.46,8.51-25.17S268.31,249,265.82,250.73Z" transform="translate(-38.17 -121.84)"/><path class="cls-16" d="M275.51,292.57s-2.56,6.93-1.45,7.83,3.29-1.65,4.13-3.94a10.08,10.08,0,0,0,.61-3.42s.9-.05.74-.9-.75-2.28-1.54-2S275.51,292.57,275.51,292.57Z" transform="translate(-38.17 -121.84)"/><path class="cls-3" d="M281.54,251.56a99.76,99.76,0,0,0-4,12c-1.69,6.51-2.64,9.38-2.35,10.3s3.85,14.71,3.36,16.9a2.81,2.81,0,0,1-4.74,1.14c-1.27-1.48-6.54-15.12-6.4-18.38s.63-19.35,3.45-23.25S281.35,248.55,281.54,251.56Z" transform="translate(-38.17 -121.84)"/><path class="cls-30" d="M272,224.56a9.71,9.71,0,0,1,5.59,5c1.79,3.92,4.92,16.11,4.14,21.81-.78,3.47-12.53,2.58-15.88-.67-.45-2.57-2.35-12.19-.34-21.81C265.93,226.57,268.39,224.56,272,224.56Z" transform="translate(-38.17 -121.84)"/><path class="cls-31" d="M269.51,212.92s3.41,3.47,3.07,7.05c-.5,3-1.73,3.19.11,5.15a3,3,0,0,1-4,.67s1.23-1.46-.9-2.69a11,11,0,0,1-4.47-6.71c-.34-2.68,1-3.8,2.79-4.25S269,212.25,269.51,212.92Z" transform="translate(-38.17 -121.84)"/><path class="cls-32" d="M272.73,225.7s10.36.94,15.47,5.1c1.72,3.7-15.45.81-17.06-1.64S272.73,225.7,272.73,225.7Z" transform="translate(-38.17 -121.84)"/><path class="cls-31" d="M285.3,220.36a1.61,1.61,0,0,0-.49-1.41,4.1,4.1,0,0,1-1.32-2.54c0-.68,1,.72,1,.72s-1.3-2.62-1.07-2.77,2.1,1.14,2.67,2.16,0,2.16.47,3.27Z" transform="translate(-38.17 -121.84)"/><path class="cls-33" d="M286.42,231.54s-1.91-6.86-1.33-11.84l1.58-.2a30.47,30.47,0,0,1,2.31,8.33C289.3,231.72,287.31,233,286.42,231.54Z" transform="translate(-38.17 -121.84)"/><path class="cls-31" d="M250.85,213.78a2.69,2.69,0,0,1-.43-1.57c.12-.73.18-2.7-.21-2.75s-.51,1-.51,1-.43-1.51-1-1.58-2,1.84-1.49,2.69,1.91,1.51,2.26,2l.51.76Z" transform="translate(-38.17 -121.84)"/><path class="cls-34" d="M267.46,231.27s-10-2.86-14.25-7.89c-1-3.95,15.33,2.08,16.45,4.79S267.46,231.27,267.46,231.27Z" transform="translate(-38.17 -121.84)"/><path class="cls-35" d="M256.27,223.41s-2.34-6.72-5.65-10.49l-1.42.74a30.26,30.26,0,0,0,2.85,8.16C254,225.19,256.35,225.08,256.27,223.41Z" transform="translate(-38.17 -121.84)"/><path class="cls-36" d="M270,215.8s1.43,2.27,1.09,2.69-1.93.67-2,.33,1.26-.92,1.26-.92S269,215.3,270,215.8Z" transform="translate(-38.17 -121.84)"/><path class="cls-6" d="M262.35,212.91s4.66-3.23,7.16-1.56c1.44,2.15-5.13,3.82-5.13,3.82s3.23,6.68,1.44,6.8S259,215.65,262.35,212.91Z" transform="translate(-38.17 -121.84)"/><path class="cls-37" d="M78.15,216.76l1.12-4.14a1.2,1.2,0,0,1,2.32,0l1.12,4.14a1.18,1.18,0,0,0,.85.85l4.14,1.12a1.2,1.2,0,0,1,0,2.32l-4.14,1.12a1.18,1.18,0,0,0-.85.85l-1.12,4.13a1.2,1.2,0,0,1-2.32,0L78.15,223a1.18,1.18,0,0,0-.85-.85l-4.13-1.12a1.2,1.2,0,0,1,0-2.32l4.13-1.12A1.18,1.18,0,0,0,78.15,216.76Z" transform="translate(-38.17 -121.84)"/><path class="cls-37" d="M204.78,228.24l.54-2a.57.57,0,0,1,1.11,0l.53,2a.6.6,0,0,0,.41.41l2,.53a.57.57,0,0,1,0,1.11l-2,.54a.59.59,0,0,0-.41.4l-.53,2a.57.57,0,0,1-1.11,0l-.54-2a.56.56,0,0,0-.4-.4l-2-.54a.57.57,0,0,1,0-1.11l2-.53A.57.57,0,0,0,204.78,228.24Z" transform="translate(-38.17 -121.84)"/><path class="cls-37" d="M57.29,297l.54-2a.57.57,0,0,1,1.11,0l.53,2a.59.59,0,0,0,.41.4l2,.54a.57.57,0,0,1,0,1.11l-2,.53a.6.6,0,0,0-.41.41l-.53,2a.57.57,0,0,1-1.11,0l-.54-2a.59.59,0,0,0-.4-.41l-2-.53a.57.57,0,0,1,0-1.11l2-.54A.58.58,0,0,0,57.29,297Z" transform="translate(-38.17 -121.84)"/><path class="cls-38" d="M251,336H175.5a5.07,5.07,0,0,0-5.06,5.06v32.38a5.06,5.06,0,0,0,5.06,5.05H251Z" transform="translate(-38.17 -121.84)"/><path class="cls-24" d="M259.67,370.1V344.44a2.81,2.81,0,0,1,2.81-2.81H374.17a2.8,2.8,0,0,0,2.81-2.8h0a2.81,2.81,0,0,0-2.81-2.81H244a5.06,5.06,0,0,0-5.06,5.06v32.38a5.05,5.05,0,0,0,5.06,5.05H374.17a2.8,2.8,0,0,0,2.81-2.8h0a2.81,2.81,0,0,0-2.81-2.81H262.48A2.8,2.8,0,0,1,259.67,370.1Z" transform="translate(-38.17 -121.84)"/><path class="cls-16" d="M217.83,219.8H333.66a0,0,0,0,1,0,0v31.27a0,0,0,0,1,0,0H217.83a9.29,9.29,0,0,1-9.29-9.29V229.09A9.29,9.29,0,0,1,217.83,219.8Z"/><path class="cls-39" d="M246.7,362.42v1.19A9.28,9.28,0,0,0,256,372.9H371.83V362.42Z" transform="translate(-38.17 -121.84)"/><rect class="cls-1" x="143.31" y="228.73" width="43.21" height="14.4"/><path class="cls-40" d="M269.88,305.37H194.37a5.06,5.06,0,0,0-5.05,5.06v21.31a5.06,5.06,0,0,0,5.05,5.06h75.51V305.37Z" transform="translate(-38.17 -121.84)"/><path class="cls-41" d="M278.54,328.38V313.79a2.81,2.81,0,0,1,2.81-2.81H393a2.8,2.8,0,0,0,2.81-2.8h0a2.81,2.81,0,0,0-2.81-2.81H262.91a5.07,5.07,0,0,0-5.06,5.06v21.31a5.07,5.07,0,0,0,5.06,5.06H393a2.81,2.81,0,0,0,2.81-2.81h0a2.8,2.8,0,0,0-2.81-2.8H281.35A2.81,2.81,0,0,1,278.54,328.38Z" transform="translate(-38.17 -121.84)"/><path class="cls-16" d="M390.7,331.19H274.87a9.28,9.28,0,0,1-9.29-9.29v-1.63a9.28,9.28,0,0,1,9.29-9.29H390.7Z" transform="translate(-38.17 -121.84)"/><path class="cls-39" d="M265.58,320.7v1.2a9.29,9.29,0,0,0,9.29,9.29H390.7V320.7Z" transform="translate(-38.17 -121.84)"/><polygon class="cls-42" points="161.03 214.96 166.99 214.96 166.99 183.54 166.99 183.54 161.03 183.54 161.03 183.54 161.03 214.96"/><path class="cls-43" d="M272.87,378.51l.05-20.61H102.43l-.05,20.61ZM110,367a2.41,2.41,0,1,1-2.41,2.4A2.4,2.4,0,0,1,110,367Z" transform="translate(-38.17 -121.84)"/><polygon class="cls-44" points="64.26 236.07 64.25 241.22 234.74 241.63 234.75 236.07 64.26 236.07"/><rect class="cls-45" x="114.12" y="373.95" width="7.27" height="1.87" transform="translate(-295.58 369.9) rotate(-89.86)"/><rect class="cls-45" x="119.52" y="375.96" width="3.95" height="1.16" transform="translate(-293.51 375.29) rotate(-89.86)"/><rect class="cls-45" x="122.73" y="375.96" width="3.94" height="1.16" transform="translate(-290.31 378.49) rotate(-89.86)"/><rect class="cls-45" x="125.94" y="375.97" width="3.93" height="1.16" transform="matrix(0, -1, 1, 0, -287.11, 381.72)"/><rect class="cls-45" x="129.15" y="375.97" width="3.93" height="1.16" transform="translate(-283.92 384.91) rotate(-89.86)"/><rect class="cls-45" x="131.18" y="373.97" width="7.22" height="1.87" transform="translate(-278.6 386.96) rotate(-89.86)"/><rect class="cls-45" x="136.57" y="375.98" width="3.91" height="1.16" transform="translate(-276.53 392.34) rotate(-89.86)"/><rect class="cls-45" x="139.78" y="375.98" width="3.9" height="1.16" transform="translate(-273.34 395.55) rotate(-89.86)"/><rect class="cls-45" x="142.99" y="375.99" width="3.89" height="1.16" transform="matrix(0, -1, 1, 0, -270.14, 398.76)"/><rect class="cls-45" x="146.2" y="375.99" width="3.89" height="1.16" transform="translate(-266.95 401.98) rotate(-89.86)"/><rect class="cls-45" x="148.23" y="373.99" width="7.18" height="1.87" transform="translate(-261.63 404.01) rotate(-89.86)"/><rect class="cls-45" x="153.63" y="376" width="3.87" height="1.16" transform="translate(-259.55 409.41) rotate(-89.86)"/><rect class="cls-45" x="156.84" y="376.01" width="3.86" height="1.16" transform="translate(-256.36 412.63) rotate(-89.86)"/><rect class="cls-45" x="160.05" y="376.01" width="3.85" height="1.16" transform="translate(-253.17 415.82) rotate(-89.86)"/><rect class="cls-45" x="163.26" y="376.01" width="3.84" height="1.16" transform="translate(-249.97 419.04) rotate(-89.86)"/><rect class="cls-45" x="165.29" y="374.01" width="7.14" height="1.87" transform="translate(-244.65 421.07) rotate(-89.86)"/><rect class="cls-45" x="170.68" y="376.02" width="3.83" height="1.16" transform="translate(-242.57 426.48) rotate(-89.87)"/><rect class="cls-45" x="173.89" y="376.03" width="3.82" height="1.16" transform="translate(-239.38 429.67) rotate(-89.86)"/><rect class="cls-45" x="177.11" y="376.03" width="3.81" height="1.16" transform="translate(-236.19 432.88) rotate(-89.86)"/><rect class="cls-45" x="180.32" y="376.03" width="3.8" height="1.16" transform="matrix(0, -1, 1, 0, -233, 436.08)"/><rect class="cls-45" x="182.35" y="374.03" width="7.1" height="1.87" transform="translate(-227.68 438.12) rotate(-89.86)"/><rect class="cls-45" x="187.74" y="376.04" width="3.79" height="1.16" transform="translate(-225.61 443.5) rotate(-89.86)"/><rect class="cls-45" x="190.95" y="376.05" width="3.78" height="1.16" transform="translate(-222.41 446.73) rotate(-89.86)"/><rect class="cls-45" x="194.16" y="376.05" width="3.77" height="1.16" transform="translate(-219.22 449.94) rotate(-89.86)"/><rect class="cls-45" x="197.37" y="376.05" width="3.76" height="1.16" transform="translate(-216.02 453.16) rotate(-89.86)"/><rect class="cls-45" x="199.4" y="374.05" width="7.06" height="1.87" transform="translate(-210.7 455.19) rotate(-89.86)"/><rect class="cls-45" x="204.8" y="376.06" width="3.75" height="1.16" transform="translate(-208.62 460.59) rotate(-89.87)"/><rect class="cls-45" x="208.01" y="376.07" width="3.74" height="1.16" transform="translate(-205.43 463.79) rotate(-89.86)"/><rect class="cls-45" x="211.22" y="376.07" width="3.73" height="1.16" transform="translate(-202.24 467) rotate(-89.86)"/><rect class="cls-45" x="214.43" y="376.07" width="3.72" height="1.16" transform="translate(-199.05 470.2) rotate(-89.86)"/><rect class="cls-45" x="216.46" y="374.07" width="7.02" height="1.87" transform="matrix(0, -1, 1, 0, -193.73, 472.23)"/><rect class="cls-45" x="221.85" y="376.08" width="3.7" height="1.16" transform="translate(-191.65 477.63) rotate(-89.86)"/><rect class="cls-45" x="225.06" y="376.09" width="3.7" height="1.16" transform="translate(-188.47 480.82) rotate(-89.86)"/><rect class="cls-45" x="228.27" y="376.09" width="3.69" height="1.16" transform="matrix(0, -1, 1, 0, -185.26, 484.05)"/><rect class="cls-45" x="231.49" y="376.09" width="3.68" height="1.16" transform="translate(-182.07 487.26) rotate(-89.86)"/><rect class="cls-45" x="233.51" y="374.09" width="6.98" height="1.87" transform="translate(-176.76 489.29) rotate(-89.86)"/><rect class="cls-45" x="238.91" y="376.1" width="3.66" height="1.16" transform="translate(-174.68 494.68) rotate(-89.86)"/><rect class="cls-45" x="242.12" y="376.11" width="3.66" height="1.16" transform="translate(-171.48 497.91) rotate(-89.87)"/><rect class="cls-45" x="245.33" y="376.11" width="3.65" height="1.16" transform="translate(-168.29 501.11) rotate(-89.86)"/><rect class="cls-45" x="248.54" y="376.11" width="3.64" height="1.16" transform="translate(-165.09 504.33) rotate(-89.86)"/><rect class="cls-45" x="250.57" y="374.11" width="6.94" height="1.87" transform="translate(-159.78 506.34) rotate(-89.86)"/><rect class="cls-45" x="255.97" y="376.12" width="3.62" height="1.16" transform="translate(-157.71 511.74) rotate(-89.86)"/><rect class="cls-45" x="259.18" y="376.13" width="3.62" height="1.16" transform="translate(-154.51 514.96) rotate(-89.86)"/><rect class="cls-45" x="262.39" y="376.13" width="3.61" height="1.16" transform="translate(-151.31 518.17) rotate(-89.86)"/><rect class="cls-45" x="265.6" y="376.14" width="3.6" height="1.16" transform="translate(-148.13 521.36) rotate(-89.86)"/><path class="cls-46" d="M87.68,335.05s5,3.19,4.38,4.06-5.84-1.46-6.18-2.33.87-1.93.87-1.93Z" transform="translate(-38.17 -121.84)"/><polygon class="cls-1" points="32.37 256.68 29.98 256.68 62.3 104.63 64.69 104.63 32.37 256.68"/><polygon class="cls-1" points="46.7 256.68 44.31 256.68 76.63 104.63 79.01 104.63 46.7 256.68"/><polygon class="cls-1" points="75.3 113.39 61.76 113.39 62.21 111.27 75.75 111.27 75.3 113.39"/><polygon class="cls-1" points="73.43 122.14 59.9 122.14 60.35 120.02 73.89 120.02 73.43 122.14"/><polygon class="cls-1" points="71.57 130.9 58.04 130.9 58.49 128.78 72.02 128.78 71.57 130.9"/><polygon class="cls-1" points="69.71 139.66 56.18 139.66 56.63 137.53 70.16 137.53 69.71 139.66"/><polygon class="cls-1" points="67.85 148.41 54.32 148.41 54.77 146.29 68.3 146.29 67.85 148.41"/><polygon class="cls-1" points="65.99 157.17 52.46 157.17 52.91 155.05 66.44 155.05 65.99 157.17"/><polygon class="cls-1" points="64.13 165.93 50.59 165.93 51.05 163.81 64.58 163.81 64.13 165.93"/><polygon class="cls-1" points="62.27 174.68 48.73 174.68 49.19 172.56 62.72 172.56 62.27 174.68"/><polygon class="cls-1" points="60.41 183.44 46.87 183.44 47.32 181.32 60.86 181.32 60.41 183.44"/><polygon class="cls-1" points="58.54 192.2 45.01 192.2 45.46 190.07 58.99 190.07 58.54 192.2"/><polygon class="cls-1" points="56.68 200.95 43.15 200.95 43.6 198.83 57.13 198.83 56.68 200.95"/><polygon class="cls-1" points="54.82 209.71 41.29 209.71 41.74 207.59 55.27 207.59 54.82 209.71"/><polygon class="cls-1" points="52.96 218.47 39.43 218.47 39.88 216.34 53.41 216.34 52.96 218.47"/><polygon class="cls-1" points="51.1 227.22 37.57 227.22 38.02 225.1 51.55 225.1 51.1 227.22"/><polygon class="cls-1" points="49.24 235.98 35.7 235.98 36.16 233.86 49.69 233.86 49.24 235.98"/><polygon class="cls-1" points="47.38 244.74 33.84 244.74 34.29 242.61 47.83 242.61 47.38 244.74"/><path class="cls-47" d="M82.56,277.5s2.13,8.87-.18,9.57-6.91,1.24-7.44-2.48S78.84,275.2,82.56,277.5Z" transform="translate(-38.17 -121.84)"/><path class="cls-1" d="M74.76,276.62s8.33-3.72,9.4-.71S78,280.34,78,280.34s.89,7.62-1.77,8S71.57,278.92,74.76,276.62Z" transform="translate(-38.17 -121.84)"/><path class="cls-1" d="M85.49,305.5c.26,0,7.66,8.29,8.1,11.48s-4.21,18.21-5.18,18.47-2.3,0-2.39-.53,2.26-15.82,1.46-16.61-7.93-3.77-9-8.55S85.49,305.5,85.49,305.5Z" transform="translate(-38.17 -121.84)"/><path class="cls-1" d="M75.39,309.14s2.12,9.83,4.12,12.76-1.33,20.6-.54,21.26a1.54,1.54,0,0,0,2.53-.53c.66-1.2,3.59-15.28,3.72-19.54S84,308.87,84,308.87Z" transform="translate(-38.17 -121.84)"/><path class="cls-24" d="M82.74,289.2s-4.61-2.3-7.62.71-3.72,14-.53,19.85c3.19,4.6,11-.53,12-2.84S83.45,296.64,82.74,289.2Z" transform="translate(-38.17 -121.84)"/><path class="cls-31" d="M94.86,287.21c0-.2.26-2.79,2-2.79s2.33,1.19,1.79,1.33a1.46,1.46,0,0,1-.93-.07s-.66,2-1.39,2.13A2,2,0,0,1,94.86,287.21Z" transform="translate(-38.17 -121.84)"/><path class="cls-24" d="M88.14,293.19c1.7,1.69,4.79-5.05,6.52-6.38s2.52.13,2.52.13-2.79,9.3-5.45,12.23-8.24-.8-11.83-5.45c-3-3.87-.09-4.7,1.21-4.88l.52,0A17.55,17.55,0,0,1,88.14,293.19Z" transform="translate(-38.17 -121.84)"/><path class="cls-46" d="M79.77,343a1.6,1.6,0,0,0-.53,1.73c.27,1.19,3.59,5.31,4.65,4.78s-2.39-6.91-2.39-6.91Z" transform="translate(-38.17 -121.84)"/><path class="cls-16" d="M344.21,181.72s5.67-.35,5.94.62-5.85,1.95-6.2,1.33S344.21,181.72,344.21,181.72Z" transform="translate(-38.17 -121.84)"/><path class="cls-16" d="M352.32,179.06s5.67-.35,5.94.63-5.85,1.94-6.21,1.32S352.32,179.06,352.32,179.06Z" transform="translate(-38.17 -121.84)"/><path class="cls-48" d="M334.55,139.46s2.66-.89,4.43,2.13.27,6.46,1.69,9.3-1.24,4.43-3.72,2.3S333.49,141.23,334.55,139.46Z" transform="translate(-38.17 -121.84)"/><path class="cls-49" d="M336.06,125.33a5.71,5.71,0,0,0-6.64-3.33c-4.92,1.07-5.72,4.92-10.37,4.79s-7.44.4-9.84,2.79-7.84,0-9.3,4.65.13,11.83,7.58,11.83,7.44-5.85,11.56-4.52,5.71,2,9.43-.13,8.38-4.79,8.64-8.38S337.12,126.79,336.06,125.33Z" transform="translate(-38.17 -121.84)"/><path class="cls-24" d="M327.47,156.83s-2,6.2,3.19,7.62c5,.35,8,.53,8,.53s4.08,18.6,5.32,18.07,1.41-.35,1.41-2-1.95-17-3.19-18.6-8.5-4.61-8.5-4.61l-6.91-.53" transform="translate(-38.17 -121.84)"/><path class="cls-24" d="M333.31,156s-1.33,6.36,3.92,7.27c5-.13,8-.25,8-.25s5.88,18.11,7.06,17.46,1.38-.49,1.22-2.08-3.61-16.73-5-18.2-8.91-3.75-8.91-3.75l-6.93.15" transform="translate(-38.17 -121.84)"/><path class="cls-50" d="M331.78,138.1s3.26.34,4.28,1.69,1,2.7,2.13,4.39-.56,3.15.23,5.62.45,2.59,1.91,4.84,0,3.26-1.8,4.38-8.86,1.87-10.89-.6-.33-3,.23-4.95-1.15-5.92-1.49-9.18.68-4.84,3-5.74S331.78,138.1,331.78,138.1Z" transform="translate(-38.17 -121.84)"/><path class="cls-31" d="M333.66,126.43s2.22,4.43.76,7.79c-1.41,2.71-2.68,2.54-1.5,5a3.08,3.08,0,0,1-4.11-.62s1.64-1,0-2.88a11.21,11.21,0,0,1-2.22-7.9c.52-2.7,2.17-3.37,4.05-3.24S333.39,125.63,333.66,126.43Z" transform="translate(-38.17 -121.84)"/><path class="cls-36" d="M333.19,129.36s.67,2.64.21,2.95-2.08,0-2-.31,1.51-.5,1.51-.5S332.45,128.59,333.19,129.36Z" transform="translate(-38.17 -121.84)"/><path class="cls-51" d="M327.29,140.52a.82.82,0,0,0-.28.07c-.52.22-1.65,1.08-2.38,4.54-1,4.61-2,6.73-1.33,8.24s9.57,5.76,11.17,5.32,1.15-1.33.08-2.22-6.64-3.19-6.73-4.7,3.81-6.2,2.57-8.41" transform="translate(-38.17 -121.84)"/><path class="cls-2" d="M347.29,157.49s.6.73-.4,1.26-12.76,2.46-13.16,2.33-.59-.93-.59-.93Z" transform="translate(-38.17 -121.84)"/><path class="cls-1" d="M330.91,151.89a2.63,2.63,0,0,1,2.07-3c4.75-1,14.67-2.85,15.18-1.74s-.2,8-.45,10.23a.94.94,0,0,1-.76.8l-13.54,2.61a.94.94,0,0,1-1.1-.76Z" transform="translate(-38.17 -121.84)"/><path class="cls-52" d="M334,125.1s.89,1.6-1.24,2.31-1.86,2-3.36,3.28-2.22,1.5-3.64,3.1-3.72-1.86-1.68-5.32,1.95-4.52,5-5A5.29,5.29,0,0,1,334,125.1Z" transform="translate(-38.17 -121.84)"/><path class="cls-16" d="M341.38,154a1.47,1.47,0,1,1-1.47-1.46A1.47,1.47,0,0,1,341.38,154Z" transform="translate(-38.17 -121.84)"/><path class="cls-6" d="M383.44,219.16s1.73.53,1.73,3.65v8.24h-5.91v-8.24c0-3.12,1.72-3.65,1.72-3.65Z" transform="translate(-38.17 -121.84)"/><rect class="cls-7" x="340.82" y="94.93" width="6.51" height="2.66"/><path class="cls-6" d="M382.22,218.85h0a1.6,1.6,0,0,1-1.59-1.6V163.74a1.6,1.6,0,0,1,1.59-1.6h0a1.6,1.6,0,0,1,1.6,1.6v53.51A1.6,1.6,0,0,1,382.22,218.85Z" transform="translate(-38.17 -121.84)"/></svg>