<svg width="38" height="39" viewBox="0 0 38 39" fill="none" xmlns="http://www.w3.org/2000/svg">
<rect width="38" height="39" rx="10" fill="#3FA9F5"/>
<rect x="19" width="19" height="39" rx="9.5" fill="#3498DF"/>
<path d="M20.3535 31.5271C18.1035 31.5271 15.918 31.1697 13.7969 30.4549C11.6758 29.74 10.6152 28.4627 10.6152 26.6228C10.6152 24.783 11.4473 23.8631 13.1113 23.8631C13.3574 23.8631 14.3359 24.1853 16.0469 24.8299C17.7578 25.4744 19.2344 25.7967 20.4766 25.7967C21.7305 25.7967 22.3574 25.2693 22.3574 24.2146C22.3574 23.5232 21.9297 22.949 21.0742 22.492C20.2188 22.0232 19.0234 21.5369 17.4883 21.033C15.9648 20.5291 15.0098 20.1482 14.623 19.8904C12.8418 18.7068 11.9512 16.9842 11.9512 14.7225C11.9512 12.449 12.6953 10.6092 14.1836 9.20293C15.6367 7.82011 17.3535 7.12871 19.334 7.12871C21.3145 7.12871 23.0371 7.3455 24.502 7.7791C27.2441 8.64629 28.3457 9.92949 27.8066 11.6287C27.2793 13.3162 26.3066 14.1014 24.8887 13.9842C24.7598 13.9842 24.0566 13.7439 22.7793 13.2635C21.502 12.783 20.3652 12.5428 19.3691 12.5428C18.3848 12.5428 17.8926 13.0291 17.8926 14.0018C17.8926 14.6228 18.3086 15.1619 19.1406 15.6189C19.9844 16.0643 21.168 16.5564 22.6914 17.0955C24.2148 17.6228 25.1816 18.0271 25.5918 18.3084C27.3965 19.5271 28.2988 21.3436 28.2988 23.7576C28.2988 26.16 27.5254 28.0643 25.9785 29.4705C24.4902 30.8416 22.6152 31.5271 20.3535 31.5271Z" fill="white"/>
</svg>
